<?xml version="1.0" encoding="UTF-8"?>
<svg width="1132px" height="270px" viewBox="0 0 1132 270" version="1.1" xmlns="http://www.w3.org/2000/svg" xmlns:xlink="http://www.w3.org/1999/xlink">
    <title>SAVI3-svg-color-dark</title>
    <defs>
        <linearGradient x1="1.44424438%" y1="45.2300124%" x2="100%" y2="54.7699876%" id="linearGradient-1">
            <stop stop-color="#72DBD2" offset="0%"></stop>
            <stop stop-color="#7D8FE4" offset="100%"></stop>
        </linearGradient>
    </defs>
    <g id="Web-Stuff" stroke="none" stroke-width="1" fill="none" fill-rule="evenodd">
        <g id="SAVI-3">
            <g id="addon" transform="translate(718.000000, 0.000000)" fill="#9EA3AA">
                <path d="M390.979028,6.01048584 C398.312362,9.93239542 404.067605,15.6876383 407.989514,23.0209717 L408.371409,23.746513 C412.046862,30.8478008 414,38.2895367 414,57.687417 L414,212.312583 C414,232.371755 411.911424,239.645695 407.989514,246.979028 C404.067605,254.312362 398.312362,260.067605 390.979028,263.989514 L390.253487,264.371409 C383.152199,268.046862 375.710463,270 356.312583,270 L57.687417,270 C37.6282454,270 30.354305,267.911424 23.0209717,263.989514 C15.6876383,260.067605 9.93239542,254.312362 6.01048584,246.979028 L5.62859135,246.253487 C1.99490436,239.232896 0.0446119029,231.87955 0,212.96926 L0,57.687417 C0,37.6282454 2.08857625,30.354305 6.01048584,23.0209717 C9.93239542,15.6876383 15.6876383,9.93239542 23.0209717,6.01048584 L23.746513,5.62859135 C30.7671043,1.99490436 38.1204503,0.0446119029 57.0307404,0 L356.312583,0 C376.371755,0 383.645695,2.08857625 390.979028,6.01048584 Z M357.568464,9.9 L57.0536998,9.9 L55.1643716,9.91097633 C40.2069269,10.041332 34.0587014,11.334311 27.6898004,14.7404365 C22.0817249,17.7396681 17.7396681,22.0817249 14.7404365,27.6898004 L14.4726033,28.1987279 C11.1802532,34.5596817 9.96342175,40.9764833 9.9,56.4315144 L9.9,212.9463 L9.91097633,214.835628 C10.041332,229.793073 11.334311,235.941299 14.7404365,242.3102 C17.7396681,247.918275 22.0817249,252.260332 27.6898004,255.259564 L28.1987279,255.527397 C34.5596817,258.819747 40.9764844,260.036578 56.431559,260.1 L356.312583,260.1 C373.106406,260.1 379.606404,258.844793 386.3102,255.259564 C391.918275,252.260332 396.260332,247.918275 399.259564,242.3102 L399.527397,241.801272 C402.819747,235.440318 404.036578,229.023516 404.1,213.568441 L404.1,57.687417 C404.1,40.8935935 402.844793,34.3935958 399.259564,27.6898004 C396.260332,22.0817249 391.918275,17.7396681 386.3102,14.7404365 L385.801272,14.4726033 C379.440318,11.1802532 373.023516,9.96342175 357.568464,9.9 Z M265.404,49 L216.732,118.498 L217.505545,118.526845 C227.016954,118.934562 235.456105,121.264947 242.823,125.518 C250.389,129.886 256.2,135.619 260.256,142.717 C264.312,149.815 266.34,157.654 266.34,166.234 C266.34,177.466 263.688,187.489 258.384,196.303 C253.08,205.117 245.358,212.02 235.218,217.012 C225.078,222.004 212.988,224.5 198.948,224.5 C188.964,224.5 178.941,223.057 168.879,220.171 C158.817,217.285 151.524,213.58 147,209.056 L147,209.056 L157.998,186.826 L158.504204,187.225203 C163.10302,190.800568 168.862286,193.9045 175.782,196.537 C182.958,199.267 190.29,200.632 197.778,200.632 C224.454,200.632 237.792,189.79 237.792,168.106 C237.792,158.902 234.165,151.492 226.911,145.876 C219.657,140.26 209.868,137.452 197.544,137.452 C188.964,137.452 181.71,137.92 175.782,138.856 L175.782,138.856 L218.838,71.932 L154.254,71.932 L154.254,49 L265.404,49 Z" id="3"></path>
            </g>
            <g id="savi" transform="translate(0.000000, 34.000000)" fill="url(#linearGradient-1)">
                <path d="M654,40.0495663 L653.999999,202 L616,202 L616,40.0495663 L654,40.0495663 Z M322.5,0 L458.700012,202 L418.849976,202 L309.182038,39.254728 L234,150.686493 L234,91.2429293 L295.5,1.83541496e-09 L322.5,0 Z M374.299988,1.83314319e-09 L481.799988,159.697646 L589.299988,1.83314319e-09 L654,1.83314341e-09 L654,32.2002522 L616,32.039653 L616,21.7769517 L494.5,202 L469.5,202 L332.799988,1.83314341e-09 L374.299988,1.83314319e-09 Z M285.190002,1.83314341e-09 L263.600006,32.039653 C263.600006,32.039653 75.2817497,32.0396519 64.2766209,32.3849895 C53.271492,32.7303272 34.11309,30.6425057 34.11309,46.2951141 L34.11309,46.2951141 L34.1130905,55.5687732 C34.1130905,71.9133653 45.5,75.1173276 63.8727773,75.1173306 L63.8727773,75.1173306 L164.250521,75.1173306 C226.606156,75.1173306 226.84628,92.5296442 226.84628,125.015304 L226.84628,150.056659 C226.84628,201.977354 185.763379,201.977354 163.67828,201.977354 L163.67828,201.977354 L0,201.963264 L0,167.163686 L0,167.163686 L163,167.163688 C191.121267,167.163688 191.964905,155.953341 191.990215,148.375054 L191.990991,128.146452 C191.990991,114.167442 186,110.731007 165.427749,110.731007 C165.427749,110.731007 87.0429858,110.705958 53.2714929,110.718482 C19.5,110.731007 0,93.4658574 0,61.9414602 L0,61.9414602 L0.113824645,42.9291301 C0.113824645,0.999928446 30.116673,7.48844571e-09 69.5,7.48844571e-09 L285.190002,1.83314341e-09 Z" id="SAVI"></path>
            </g>
        </g>
    </g>
</svg>